<?xml version="1.0" standalone="no"?><!DOCTYPE svg PUBLIC "-//W3C//DTD SVG 1.1//EN" "http://www.w3.org/Graphics/SVG/1.1/DTD/svg11.dtd"><svg t="1572597022157" class="icon" viewBox="0 0 1024 1024" version="1.1" xmlns="http://www.w3.org/2000/svg" p-id="6571" xmlns:xlink="http://www.w3.org/1999/xlink" width="22" height="22"><defs><style type="text/css"></style></defs><path d="M448 128l0-16c0-26.4-21.6-48-48-48l-160 0c-26.4 0-48 21.6-48 48l0 16-192 0 0 128 192 0 0 16c0 26.4 21.6 48 48 48l160 0c26.4 0 48-21.6 48-48l0-16 576 0 0-128-576 0zM256 256l0-128 128 0 0 128-128 0zM832 432c0-26.4-21.6-48-48-48l-160 0c-26.4 0-48 21.6-48 48l0 16-576 0 0 128 576 0 0 16c0 26.4 21.6 48 48 48l160 0c26.4 0 48-21.6 48-48l0-16 192 0 0-128-192 0 0-16zM640 576l0-128 128 0 0 128-128 0zM448 752c0-26.4-21.6-48-48-48l-160 0c-26.4 0-48 21.6-48 48l0 16-192 0 0 128 192 0 0 16c0 26.4 21.6 48 48 48l160 0c26.4 0 48-21.6 48-48l0-16 576 0 0-128-576 0 0-16zM256 896l0-128 128 0 0 128-128 0z" p-id="6572" fill="#ffffff"></path></svg>