<?xml version="1.0" standalone="no"?><!DOCTYPE svg PUBLIC "-//W3C//DTD SVG 1.1//EN" "http://www.w3.org/Graphics/SVG/1.1/DTD/svg11.dtd"><svg t="1584947635484" class="icon" viewBox="0 0 1024 1024" version="1.1" xmlns="http://www.w3.org/2000/svg" p-id="2266" xmlns:xlink="http://www.w3.org/1999/xlink" width="22" height="22"><defs><style type="text/css"></style></defs><path d="M512 170.666667V42.666667L341.333333 213.333333l170.666667 170.666667V256c141.226667 0 256 114.773333 256 256 0 43.093333-10.666667 84.053333-29.866667 119.466667l62.293334 62.293333A338.346667 338.346667 0 0 0 853.333333 512c0-188.586667-152.746667-341.333333-341.333333-341.333333z m0 597.333333c-141.226667 0-256-114.773333-256-256 0-43.093333 10.666667-84.053333 29.866667-119.466667L223.573333 330.24A338.346667 338.346667 0 0 0 170.666667 512c0 188.586667 152.746667 341.333333 341.333333 341.333333v128l170.666667-170.666666-170.666667-170.666667v128z" p-id="2267" fill="#ffffff"></path></svg>