<?xml version="1.0" encoding="UTF-8"?>
<svg width="1024px" height="1024px" viewBox="0 0 1024 1024" version="1.1" xmlns="http://www.w3.org/2000/svg" xmlns:xlink="http://www.w3.org/1999/xlink">
    <!-- Generator: Sketch 54 (76480) - https://sketchapp.com -->
    <title>macOS icon</title>
    <desc>Created with Sketch.</desc>
    <g id="macOS-icon" stroke="none" stroke-width="1" fill="none" fill-rule="evenodd">
        <g id="Group" transform="translate(141.000000, 139.994949)" fill="#FFFFFF">
            <rect id="Rectangle-Copy-2" x="0" y="64.0050506" width="345" height="70"></rect>
            <rect id="Rectangle-Copy-5" x="444" y="64.0050506" width="299" height="70"></rect>
            <rect id="Rectangle-Copy-3" x="0" y="254.005051" width="743" height="70"></rect>
            <rect id="Rectangle" x="0" y="64.0050506" width="70" height="260"></rect>
            <rect id="Rectangle-Copy-4" x="673" y="64.0050506" width="70" height="260"></rect>
            <polygon id="Rectangle" transform="translate(308.994949, 99.000000) rotate(-135.000000) translate(-308.994949, -99.000000) " points="238.994949 29 378.994949 169 238.994949 169"></polygon>
        </g>
        <g id="Group-Copy" transform="translate(141.000000, 533.994949)" fill="#FFFFFF">
            <rect id="Rectangle-Copy-2" x="0" y="64.0050506" width="345" height="70"></rect>
            <rect id="Rectangle-Copy-5" x="444" y="64.0050506" width="299" height="70"></rect>
            <rect id="Rectangle-Copy-3" x="0" y="254.005051" width="743" height="70"></rect>
            <rect id="Rectangle" x="0" y="64.0050506" width="70" height="260"></rect>
            <rect id="Rectangle-Copy-4" x="673" y="64.0050506" width="70" height="260"></rect>
            <polygon id="Rectangle" transform="translate(308.994949, 99.000000) rotate(-135.000000) translate(-308.994949, -99.000000) " points="238.994949 29 378.994949 169 238.994949 169"></polygon>
        </g>
    </g>
</svg>